<svg xmlns="http://www.w3.org/2000/svg" width="320" height="180" viewBox="0 0 320 180" role="img" aria-label="Image placeholder">
  <title>Image placeholder</title>
  <rect width="320" height="180" fill="#b8d8f0" opacity="0.55"/>
  <g transform="translate(148,78)" fill="none" stroke="#1a73a8" stroke-width="2" stroke-linecap="round" stroke-linejoin="round"><path d="M4 14a1 1 0 0 1-.78-1.63l9.9-10.2a.5.5 0 0 1 .86.46l-1.92 6.02A1 1 0 0 0 13 10h7a1 1 0 0 1 .78 1.63l-9.9 10.2a.5.5 0 0 1-.86-.46l1.92-6.02A1 1 0 0 0 11 14z"/></g>
  <text x="160" y="140" text-anchor="middle" font-family="-apple-system,BlinkMacSystemFont,'Segoe UI',Roboto,'PingFang SC','Microsoft YaHei',Arial,sans-serif" font-size="12" fill="#1a73a8">320 x 180</text>
</svg>